<svg width="33" height="32" viewBox="0 0 33 32" fill="none" xmlns="http://www.w3.org/2000/svg">
<path d="M12.1763 31C13.5213 31 14.6116 29.7784 14.6116 28.2714C14.6116 26.7645 13.5213 25.5428 12.1763 25.5428C10.8313 25.5428 9.74097 26.7645 9.74097 28.2714C9.74097 29.7784 10.8313 31 12.1763 31Z" stroke="#020202" stroke-width="2" stroke-miterlimit="10"/>
<path d="M23.1292 31C24.4742 31 25.5645 29.7784 25.5645 28.2714C25.5645 26.7645 24.4742 25.5428 23.1292 25.5428C21.7842 25.5428 20.6938 26.7645 20.6938 28.2714C20.6938 29.7784 21.7842 31 23.1292 31Z" stroke="#020202" stroke-width="2" stroke-miterlimit="10"/>
<path d="M0 1.00001H3.39162C4.16937 0.998476 4.92732 1.27462 5.55552 1.78837C6.18372 2.30212 6.64948 3.02676 6.88525 3.85715L10.9526 18.7286H10.3534C9.54516 18.7286 8.77005 19.0883 8.19856 19.7286C7.62707 20.3689 7.30601 21.2373 7.30601 22.1429C7.30938 23.0459 7.63193 23.9107 8.20306 24.5479C8.77418 25.1851 9.54737 25.5429 10.3534 25.5429H23.1038" stroke="#020202" stroke-width="2" stroke-miterlimit="10"/>
<path d="M8.53027 6.45715H28.0002V9.18572L25.5649 18.7286H10.9529" stroke="#020202" stroke-width="2" stroke-miterlimit="10"/>
<circle cx="28" cy="5" r="5" fill="#FF0505"/>
</svg>
