<svg width="22" height="27" viewBox="0 0 22 27" fill="none" xmlns="http://www.w3.org/2000/svg">
<path d="M1 7.67053H21V21.6403C21 22.6375 20.6038 23.5939 19.8987 24.2991C19.1935 25.0043 18.2371 25.4004 17.2398 25.4004H4.76019C3.76292 25.4004 2.8065 25.0043 2.10133 24.2991C1.39616 23.5939 1 22.6375 1 21.6403V7.67053Z" stroke="#020202" stroke-width="2" stroke-miterlimit="10"/>
<path d="M6.55298 11V5.44703C6.55298 4.26761 7.0215 3.13649 7.85548 2.30251C8.68946 1.46853 9.82058 1 11 1C12.1794 1 13.3106 1.46853 14.1445 2.30251C14.9785 3.13649 15.447 4.26761 15.447 5.44703V11" stroke="#020202" stroke-width="2" stroke-miterlimit="10"/>
</svg>
